PathFileType	4	(X/Y/Z)	TVC_20_Cal_03_0_static_RCNL2025.trc
DataRate	CameraRate	NumFrames	NumMarkers	Units	OrigDataRate	OrigDataStartFrame	OrigNumFrames
100	100	10	27	mm	100	84	133
Frame#	Time	R_Shoulder			L_Shoulder			C7			J_Notch			R_Elbow			L_Elbow			R_Wrist			L_Wrist			R_Asis			L_Asis			R_Psis			L_Psis			Sacral			Thoracic			Sternum			R_Thigh_Lateral			R_Knee_Lateral			R_Shank_Lateral			R_Ankle_Lateral			R_Heel			R_Toe			L_Thigh_Lateral			L_Knee_Lateral			L_Shank_Lateral			L_Ankle_Lateral			L_Heel			L_Toe		
		X1	Y1	Z1	X2	Y2	Z2	X3	Y3	Z3	X4	Y4	Z4	X5	Y5	Z5	X6	Y6	Z6	X7	Y7	Z7	X8	Y8	Z8	X9	Y9	Z9	X10	Y10	Z10	X11	Y11	Z11	X12	Y12	Z12	X13	Y13	Z13	X14	Y14	Z14	X15	Y15	Z15	X16	Y16	Z16	X17	Y17	Z17	X18	Y18	Z18	X19	Y19	Z19	X20	Y20	Z20	X21	Y21	Z21	X22	Y22	Z22	X23	Y23	Z23	X24	Y24	Z24	X25	Y25	Z25	X26	Y26	Z26	X27	Y27	Z27
84	0.83000000	-226.161072	1426.886597	-41.204807	-269.263947	1432.791504	-388.207458	-274.428467	1469.755005	-196.268341	-149.937531	1344.147339	-214.550079	-243.470230	1153.987671	123.205482	-279.583405	1130.994873	-512.057617	-133.472363	923.695099	180.948273	-140.296173	915.651855	-561.825989	-193.672791	1010.825562	-61.040619	-177.172073	1018.947754	-341.398315	-340.541229	1013.835449	-162.890991	-348.407593	1007.150696	-251.425537	-344.474411	1010.493073	-207.158264	-375.817474	1238.245361	-209.569458	-134.901367	1200.484131	-218.715256	-242.423569	680.251221	2.851156	-262.843201	471.045288	-59.724518	-309.727112	313.031769	-16.350367	-316.214905	76.315849	-88.990402	-355.527649	52.564548	-143.313202	-167.657440	36.586506	-81.677551	-230.897568	653.989075	-412.526520	-241.880219	462.932861	-356.807281	-257.217377	316.524689	-398.298981	-280.252411	74.387619	-318.801727	-325.994568	62.499352	-276.847046	-138.151566	38.093128	-294.656586
85	0.84000000	-226.038605	1426.847046	-41.357101	-269.260468	1432.795898	-388.208496	-274.434692	1469.763306	-196.243408	-149.931702	1344.162109	-214.586121	-243.493179	1154.003174	123.201851	-279.655487	1131.062256	-512.124023	-133.496914	923.677277	180.887657	-140.370800	915.691986	-561.896210	-193.678253	1010.844971	-61.048889	-177.174347	1018.917480	-341.440643	-340.531525	1013.929871	-162.918365	-348.395172	1007.131348	-251.429169	-344.463348	1010.530609	-207.173767	-375.803284	1238.306885	-209.607986	-134.945557	1200.477295	-218.707047	-242.048035	680.009155	2.701602	-262.800415	471.070587	-59.704811	-309.723785	313.084839	-16.361483	-316.198608	76.395340	-88.950081	-355.510681	52.415642	-143.451782	-167.559860	36.672844	-81.746689	-230.801315	654.106201	-412.509644	-241.922165	462.951721	-356.850555	-257.192627	316.621887	-398.383057	-280.116699	74.168266	-319.014679	-325.843842	62.435833	-276.843231	-138.194214	38.077641	-294.575653
86	0.85000000	-225.997437	1426.802856	-41.398216	-269.341278	1432.815430	-388.265472	-274.433105	1469.733398	-196.241013	-149.934418	1344.168091	-214.597717	-243.532455	1153.988892	123.235199	-279.707764	1131.057617	-512.145569	-133.549892	923.611603	180.819061	-140.435726	915.698669	-561.937317	-193.685364	1010.800232	-61.035709	-177.167542	1018.909058	-341.424469	-340.531647	1013.898987	-162.915924	-348.461823	1007.128357	-251.489563	-344.496735	1010.513672	-207.202744	-375.811401	1238.298096	-209.596207	-134.949051	1200.394897	-218.672836	-241.791534	679.928345	2.693799	-262.758942	471.049927	-59.687717	-309.660461	313.048492	-16.315168	-316.242188	76.310867	-88.959488	-355.475769	52.377613	-143.467133	-167.548874	36.629135	-81.759689	-230.825378	653.896606	-412.445465	-241.961716	462.851837	-356.867188	-257.189636	316.609955	-398.303223	-280.059570	74.173325	-319.035309	-326.022278	62.563644	-276.910858	-138.162247	38.070065	-294.620331
87	0.86000000	-226.042343	1426.816162	-41.387974	-269.363556	1432.835571	-388.232025	-274.437347	1469.736694	-196.240021	-150.035767	1344.130249	-214.597687	-243.520294	1153.955322	123.113289	-279.820892	1131.069702	-512.100708	-133.619686	923.586365	180.792152	-140.485958	915.687653	-561.979614	-193.671188	1010.800903	-61.082142	-177.273560	1018.911316	-341.458923	-340.564178	1013.853027	-163.024048	-348.398468	1007.061768	-251.385162	-344.481323	1010.457397	-207.204605	-375.813202	1238.295776	-209.593079	-134.982269	1200.331543	-218.731277	-241.795746	679.949646	2.679299	-262.732910	471.030121	-59.671883	-309.601746	313.070465	-16.328375	-316.262451	76.306664	-88.941925	-355.488983	52.436722	-143.390427	-167.606888	36.584206	-81.722313	-230.730469	654.006409	-412.388672	-241.901993	462.844391	-356.861084	-257.245270	316.609680	-398.293121	-280.194458	74.385170	-318.835632	-326.066437	62.588631	-276.903900	-138.085556	38.042416	-294.658325
88	0.87000000	-226.117981	1426.763306	-41.361885	-269.349915	1432.832642	-388.243835	-274.433258	1469.734375	-196.266586	-150.090225	1344.079468	-214.665146	-243.546616	1153.870728	123.120140	-279.836090	1131.043213	-512.108154	-133.667328	923.491150	180.792969	-140.521786	915.650146	-562.113403	-193.640411	1010.812927	-61.103958	-177.285339	1018.911682	-341.481110	-340.576965	1013.805908	-162.953934	-348.434601	1007.040833	-251.457138	-344.505783	1010.423370	-207.205536	-375.810089	1238.244629	-209.611511	-135.087296	1200.323364	-218.738007	-242.029663	680.280762	2.860907	-262.660736	471.004242	-59.698803	-309.587891	313.047791	-16.338837	-316.175659	76.286842	-88.918648	-355.482971	52.490540	-143.391708	-167.575317	36.652561	-81.725121	-230.696915	653.990906	-412.392792	-241.885452	462.834473	-356.870758	-257.185333	316.602661	-398.256622	-280.202179	74.322060	-318.930969	-325.986511	62.560017	-276.879517	-138.079636	38.096931	-294.825012
89	0.88000000	-226.209702	1426.777710	-41.285522	-269.408234	1432.793579	-388.259003	-274.395203	1469.632202	-196.295563	-150.054901	1344.137085	-214.408661	-243.640717	1153.868042	123.062973	-279.889374	1131.088745	-512.204346	-133.765285	923.480621	180.764793	-140.677120	915.643127	-562.122040	-193.638916	1010.812073	-61.085594	-177.168503	1018.897766	-341.443420	-340.506042	1013.803406	-163.041382	-348.412994	1006.991699	-251.496643	-344.459518	1010.397552	-207.269012	-375.793732	1238.266846	-209.619370	-135.113861	1200.315674	-218.752396	-241.837357	679.998474	2.770433	-262.650909	471.015381	-59.719212	-309.631653	313.134949	-16.379354	-316.230347	76.286751	-88.965904	-355.486389	52.397560	-143.455124	-167.588791	36.648399	-81.725601	-230.635391	654.035217	-412.238251	-241.885727	462.812744	-356.896454	-257.188049	316.639008	-398.306152	-280.145050	74.300102	-318.989197	-325.994659	62.483570	-276.849792	-138.130920	38.068245	-294.601990
90	0.89000000	-226.101807	1426.714478	-41.474064	-269.423920	1432.835205	-388.192505	-274.415314	1469.624146	-196.269714	-150.076096	1344.086670	-214.644394	-243.612579	1153.849243	123.038704	-279.925323	1131.097900	-512.247986	-133.849552	923.410339	180.749382	-140.728394	915.659180	-562.209320	-193.663742	1010.806030	-61.090973	-177.168762	1018.874756	-341.432434	-340.473114	1013.754028	-163.076324	-348.415253	1007.041992	-251.550095	-344.444183	1010.398010	-207.313210	-375.763885	1238.175659	-209.644363	-135.119308	1200.326416	-218.710373	-241.669830	679.886597	2.703037	-262.591766	471.027069	-59.668045	-309.502197	313.033997	-16.318876	-316.176147	76.275528	-88.928093	-355.477875	52.380634	-143.465561	-167.573959	36.679672	-81.719238	-230.641342	654.161560	-412.269257	-241.856064	462.820068	-356.897675	-257.188019	316.620697	-398.296844	-280.059021	74.150696	-319.051971	-325.974762	62.424129	-276.879639	-138.122070	38.008347	-294.554108
91	0.90000000	-226.190857	1426.750610	-41.342537	-269.460480	1432.840820	-388.243103	-274.515900	1469.688721	-196.185989	-150.096191	1344.042480	-214.640533	-243.732376	1153.780884	123.006287	-279.987030	1131.077637	-512.209351	-133.840923	923.411102	180.728638	-140.792408	915.677216	-562.236603	-193.668152	1010.891296	-61.006519	-177.157700	1018.932739	-341.475403	-340.473755	1013.790466	-163.055725	-348.412109	1006.975769	-251.498657	-344.442932	1010.383118	-207.277191	-375.802246	1238.151001	-209.742004	-135.229370	1200.321411	-218.779312	-241.969666	680.159546	2.822510	-262.589050	471.002930	-59.703709	-309.482605	313.021484	-16.314932	-316.149292	76.353432	-88.887794	-355.477020	52.489769	-143.427856	-167.559418	36.672718	-81.728325	-230.675354	654.058716	-412.311432	-241.876907	462.838745	-356.921417	-257.176239	316.560242	-398.276886	-280.047028	74.135139	-319.055328	-325.975037	62.526047	-276.879364	-138.133072	38.049664	-294.654999
92	0.91000000	-226.262085	1426.740234	-41.268539	-269.427826	1432.808472	-388.203369	-274.451721	1469.657471	-196.236115	-150.105225	1344.021240	-214.627380	-243.783447	1153.808350	123.018356	-280.072968	1131.111694	-512.280029	-133.854198	923.383026	180.656868	-140.803921	915.649811	-562.304901	-193.655212	1010.826660	-61.086155	-177.102554	1018.924744	-341.520691	-340.495697	1013.762390	-163.050049	-348.346375	1006.973511	-251.456436	-344.421036	1010.367950	-207.253242	-375.824036	1238.176758	-209.733627	-135.264679	1200.248169	-218.813721	-242.191940	680.304626	2.944949	-262.583557	470.988525	-59.730221	-309.485260	313.009094	-16.329672	-316.170959	76.271988	-88.909027	-355.195770	52.259472	-143.632965	-167.608154	36.598862	-81.719109	-230.557968	654.071716	-412.299805	-241.833191	462.878784	-356.885590	-257.187775	316.592804	-398.282959	-280.181610	74.282921	-318.940002	-325.997498	62.563328	-276.847626	-138.091736	38.042004	-294.621429
93	0.92000000	-226.299927	1426.793823	-41.323074	-269.443146	1432.804932	-388.264465	-274.512817	1469.686157	-196.207306	-150.221817	1344.020874	-214.666245	-243.774918	1153.799194	123.036812	-280.076111	1131.114502	-512.285889	-133.946465	923.374115	180.714760	-140.925972	915.634277	-562.365845	-193.566757	1010.743896	-61.138184	-177.235260	1018.925598	-341.507965	-340.478088	1013.810852	-163.053192	-348.327393	1006.979492	-251.531998	-344.402740	1010.395172	-207.292595	-375.770966	1238.124756	-209.655228	-135.292099	1200.165771	-218.779251	-242.260925	680.293945	2.884031	-262.583740	470.982361	-59.765999	-309.477753	313.004364	-16.319061	-316.177826	76.281517	-88.903748	-355.429352	52.296577	-143.478088	-167.721802	36.587379	-81.449654	-230.567062	654.019409	-412.287628	-241.844452	462.857117	-356.933838	-257.194763	316.642029	-398.312653	-280.219849	74.337059	-318.916199	-325.997467	62.546535	-276.851715	-138.055359	38.042755	-294.578583
